<svg width="24" height="24" viewBox="0 0 24 24" fill="none" xmlns="http://www.w3.org/2000/svg">
    <path
        d="M23.15 5.4L20.35 2.6C20.2565 2.50839 20.1309 2.45707 20 2.45707C19.8691 2.45707 19.7435 2.50839 19.65 2.6L7.84999 14.4C7.75653 14.4916 7.63087 14.5429 7.49999 14.5429C7.36911 14.5429 7.24345 14.4916 7.14999 14.4L4.34999 11.6C4.25653 11.5084 4.13087 11.4571 3.99999 11.4571C3.86911 11.4571 3.74345 11.5084 3.64999 11.6L0.84999 14.4C0.758377 14.4935 0.707062 14.6191 0.707062 14.75C0.707062 14.8809 0.758377 15.0065 0.84999 15.1L7.14999 21.4C7.24345 21.4916 7.36911 21.5429 7.49999 21.5429C7.63087 21.5429 7.75653 21.4916 7.84999 21.4L23.15 6.1C23.2416 6.00654 23.2929 5.88088 23.2929 5.75C23.2929 5.61912 23.2416 5.49346 23.15 5.4Z"
        fill="#394508" />
</svg>